<?xml version="1.0" standalone="no"?>
<!DOCTYPE svg PUBLIC "-//W3C//DTD SVG 20010904//EN"
 "http://www.w3.org/TR/2001/REC-SVG-20010904/DTD/svg10.dtd">
<svg version="1.0" xmlns="http://www.w3.org/2000/svg"
 width="512.000000pt" height="512.000000pt" viewBox="0 0 512.000000 512.000000"
 preserveAspectRatio="xMidYMid meet">

<g transform="translate(0.000000,512.000000) scale(0.100000,-0.100000)"
fill="#000000" stroke="none">
<path d="M2180 4589 c-591 -272 -812 -378 -832 -400 l-28 -29 0 -1965 0 -1965
29 -32 29 -33 1079 -3 c593 -1 1089 0 1101 3 13 3 35 18 48 32 l24 26 0 1969
c0 1332 -3 1976 -10 1989 -24 43 -56 49 -285 49 l-215 0 0 331 0 331 -34 34
c-26 26 -42 34 -67 33 -23 0 -307 -125 -839 -370z m727 -356 c-2 -2 -226 -2
-497 -1 l-493 3 494 227 494 228 3 -227 c1 -124 1 -228 -1 -230z m523 -2038
l0 -1825 -950 0 -950 0 0 1825 0 1825 950 0 950 0 0 -1825z"/>
<path d="M2423 3198 c-29 -14 -53 -66 -53 -116 l0 -40 -67 -16 c-216 -55 -405
-232 -477 -448 -32 -95 -44 -214 -26 -258 25 -61 9 -60 685 -60 l617 0 29 29
c26 27 29 36 29 99 0 136 -60 296 -154 411 -91 111 -217 191 -359 228 l-67 18
0 43 c0 49 -21 97 -49 112 -25 13 -79 12 -108 -2z m200 -379 c123 -41 233
-137 287 -251 51 -108 97 -98 -435 -98 -371 0 -465 3 -465 13 0 7 16 45 35 86
59 123 175 220 305 257 74 20 201 17 273 -7z"/>
<path d="M1923 2092 c-51 -40 -52 -114 -1 -157 l30 -25 519 0 c570 0 564 -1
589 59 17 42 5 95 -27 121 -25 20 -37 20 -557 20 -488 0 -533 -2 -553 -18z"/>
<path d="M1739 1171 c-23 -23 -29 -38 -29 -71 0 -33 6 -48 29 -71 l29 -29 709
0 c706 0 709 0 732 21 49 46 49 112 -1 154 l-30 25 -705 0 -705 0 -29 -29z"/>
<path d="M1764 744 c-74 -36 -72 -145 3 -183 15 -8 222 -11 708 -11 763 0 732
-3 761 67 20 47 4 97 -40 124 -30 18 -58 19 -716 19 -596 0 -689 -2 -716 -16z"/>
</g>
</svg>
